# xmcd
#
# Track frame offsets: 
#        183
#        11158
#        25405
#        40360
#        50505
#        61645
#        75820
#        86275
#        107070
#        118238
#        129070
#        136783
#        147605
#        163328
#        176618
#        238435
#        249368
#
# Disc length: 3494 seconds
#
# Revision: 3
# Processed by: cddbd v1.5.2PL0 Copyright (c) Steve Scherf et al.
# Submitted via: ExactAudioCopy v0.99pb5
#
DISCID=e10da411
DTITLE=Q 65 - The Complete Collection 1966-1969 cd1
DYEAR=1993
DGENRE=Blues
TTITLE0=You're the victor
TTITLE1=And your kind
TTITLE2=The life I live
TTITLE3=Cry in the night
TTITLE4=I got nightmares
TTITLE5=just who's in sight
TTITLE6=Mr. Pitiful
TTITLE7=I'm a man
TTITLE8=Middel-age talk
TTITLE9=Summerthoughts in a field of weed
TTITLE10=Down at the bottom
TTITLE11=Get out of my life, woman
TTITLE12=Spoonful
TTITLE13=Sour wine
TTITLE14=Bring it on home
TTITLE15=I despice you
TTITLE16=Ann
EXTD=
EXTT0=
EXTT1=
EXTT2=
EXTT3=
EXTT4=
EXTT5=
EXTT6=
EXTT7=
EXTT8=
EXTT9=
EXTT10=
EXTT11=
EXTT12=
EXTT13=
EXTT14=
EXTT15=
EXTT16=
PLAYORDER=
